<svg width="300" height="60" viewBox="0 0 300 60" fill="none" xmlns="http://www.w3.org/2000/svg">
<path d="M41.5312 40.8047C40.1719 41.3516 38.8516 41.7578 37.5703 42.0234C36.3047 42.2891 34.9844 42.4219 33.6094 42.4219C31.4062 42.4219 29.4531 42.1016 27.75 41.4609C26.0625 40.8047 24.6328 39.8359 23.4609 38.5547C22.3047 37.2734 21.4219 35.6875 20.8125 33.7969C20.2188 31.8906 19.9219 29.6797 19.9219 27.1641C19.9219 24.5859 20.25 22.2969 20.9062 20.2969C21.5625 18.2812 22.5 16.5859 23.7188 15.2109C24.9375 13.8203 26.4141 12.7656 28.1484 12.0469C29.8984 11.3125 31.8594 10.9453 34.0312 10.9453C34.7344 10.9453 35.3906 10.9609 36 10.9922C36.625 11.0234 37.2344 11.0859 37.8281 11.1797C38.4219 11.2578 39.0234 11.3672 39.6328 11.5078C40.2422 11.6484 40.875 11.8281 41.5312 12.0469V17.7656C40.2031 17.1406 38.9375 16.6953 37.7344 16.4297C36.5312 16.1641 35.4375 16.0312 34.4531 16.0312C33 16.0312 31.7578 16.2969 30.7266 16.8281C29.6953 17.3438 28.8438 18.0781 28.1719 19.0312C27.5156 19.9688 27.0312 21.0938 26.7188 22.4062C26.4062 23.7031 26.25 25.1328 26.25 26.6953C26.25 28.3516 26.4062 29.8359 26.7188 31.1484C27.0469 32.4453 27.5469 33.5469 28.2188 34.4531C28.8906 35.3594 29.75 36.0547 30.7969 36.5391C31.8438 37.0078 33.0859 37.2422 34.5234 37.2422C35.0391 37.2422 35.5938 37.1953 36.1875 37.1016C36.7969 36.9922 37.4062 36.8594 38.0156 36.7031C38.6406 36.5312 39.25 36.3359 39.8438 36.1172C40.4531 35.8828 41.0156 35.6484 41.5312 35.4141V40.8047ZM69.9141 26.5547C69.9141 29.3359 69.5859 31.7344 68.9297 33.75C68.2891 35.7656 67.3984 37.4219 66.2578 38.7188C65.1328 40.0156 63.8047 40.9766 62.2734 41.6016C60.7578 42.2266 59.1328 42.5391 57.3984 42.5391C53.3672 42.5391 50.3359 41.2031 48.3047 38.5312C46.2734 35.8438 45.2578 31.9453 45.2578 26.8359C45.2578 24.0547 45.5781 21.6562 46.2188 19.6406C46.875 17.625 47.7656 15.9687 48.8906 14.6719C50.0312 13.375 51.3594 12.4141 52.875 11.7891C54.4062 11.1641 56.0391 10.8516 57.7734 10.8516C61.8047 10.8516 64.8359 12.1875 66.8672 14.8594C68.8984 17.5312 69.9141 21.4297 69.9141 26.5547ZM63.8203 26.8359C63.8203 23.2109 63.3359 20.5078 62.3672 18.7266C61.3984 16.9453 59.8047 16.0547 57.5859 16.0547C56.4766 16.0547 55.5312 16.2891 54.75 16.7578C53.9688 17.2109 53.3203 17.8828 52.8047 18.7734C52.3047 19.6641 51.9375 20.7656 51.7031 22.0781C51.4688 23.375 51.3516 24.8672 51.3516 26.5547C51.3516 30.1797 51.8359 32.8828 52.8047 34.6641C53.7891 36.4453 55.3828 37.3359 57.5859 37.3359C58.6953 37.3359 59.6406 37.1094 60.4219 36.6562C61.2188 36.1875 61.8672 35.5078 62.3672 34.6172C62.8672 33.7266 63.2344 32.6328 63.4688 31.3359C63.7031 30.0234 63.8203 28.5234 63.8203 26.8359ZM75.3984 42V11.3672H81.2578V37.0547H94.1953V42H75.3984ZM122.695 26.5547C122.695 29.3359 122.367 31.7344 121.711 33.75C121.07 35.7656 120.18 37.4219 119.039 38.7188C117.914 40.0156 116.586 40.9766 115.055 41.6016C113.539 42.2266 111.914 42.5391 110.18 42.5391C106.148 42.5391 103.117 41.2031 101.086 38.5312C99.0547 35.8438 98.0391 31.9453 98.0391 26.8359C98.0391 24.0547 98.3594 21.6562 99 19.6406C99.6562 17.625 100.547 15.9687 101.672 14.6719C102.812 13.375 104.141 12.4141 105.656 11.7891C107.188 11.1641 108.82 10.8516 110.555 10.8516C114.586 10.8516 117.617 12.1875 119.648 14.8594C121.68 17.5312 122.695 21.4297 122.695 26.5547ZM116.602 26.8359C116.602 23.2109 116.117 20.5078 115.148 18.7266C114.18 16.9453 112.586 16.0547 110.367 16.0547C109.258 16.0547 108.312 16.2891 107.531 16.7578C106.75 17.2109 106.102 17.8828 105.586 18.7734C105.086 19.6641 104.719 20.7656 104.484 22.0781C104.25 23.375 104.133 24.8672 104.133 26.5547C104.133 30.1797 104.617 32.8828 105.586 34.6641C106.57 36.4453 108.164 37.3359 110.367 37.3359C111.477 37.3359 112.422 37.1094 113.203 36.6562C114 36.1875 114.648 35.5078 115.148 34.6172C115.648 33.7266 116.016 32.6328 116.25 31.3359C116.484 30.0234 116.602 28.5234 116.602 26.8359ZM142.031 42L137.719 32.1562C137.312 31.2188 136.742 30.5156 136.008 30.0469C135.289 29.5625 134.438 29.3203 133.453 29.3203H132.352V42H126.586V11.3672H135.516C137.203 11.3672 138.734 11.5156 140.109 11.8125C141.484 12.0938 142.656 12.5703 143.625 13.2422C144.594 13.9141 145.336 14.7891 145.852 15.8672C146.383 16.9453 146.648 18.2656 146.648 19.8281C146.648 20.9531 146.484 21.9531 146.156 22.8281C145.828 23.7031 145.367 24.4609 144.773 25.1016C144.18 25.7266 143.469 26.2344 142.641 26.625C141.828 27.0156 140.938 27.2891 139.969 27.4453C140.719 27.6016 141.406 28.0312 142.031 28.7344C142.656 29.4219 143.281 30.4219 143.906 31.7344L148.805 42H142.031ZM140.602 20.3906C140.602 18.8906 140.125 17.8125 139.172 17.1562C138.219 16.5 136.789 16.1719 134.883 16.1719H132.352V24.8203H134.695C135.586 24.8203 136.391 24.7266 137.109 24.5391C137.844 24.3516 138.469 24.0703 138.984 23.6953C139.5 23.3203 139.898 22.8594 140.18 22.3125C140.461 21.75 140.602 21.1094 140.602 20.3906ZM160.125 16.2422V24.7266H171.703V29.4609H160.125V42H154.266V11.3672H172.359V16.2422H160.125ZM200.695 30.7266C200.695 32.6797 200.43 34.3984 199.898 35.8828C199.383 37.3516 198.633 38.5781 197.648 39.5625C196.68 40.5469 195.492 41.2891 194.086 41.7891C192.68 42.2891 191.102 42.5391 189.352 42.5391C187.383 42.5391 185.695 42.2891 184.289 41.7891C182.883 41.2891 181.742 40.5703 180.867 39.6328C179.992 38.6953 179.359 37.5547 178.969 36.2109C178.578 34.8672 178.383 33.3594 178.383 31.6875V11.3672H184.148V31.3359C184.148 32.3672 184.234 33.2812 184.406 34.0781C184.594 34.875 184.906 35.5547 185.344 36.1172C185.797 36.6641 186.359 37.0781 187.031 37.3594C187.703 37.6406 188.547 37.7812 189.562 37.7812C190.516 37.7812 191.32 37.6641 191.977 37.4297C192.633 37.1797 193.18 36.7891 193.617 36.2578C194.055 35.7109 194.383 35.0156 194.602 34.1719C194.82 33.3281 194.93 32.3047 194.93 31.1016V11.3672H200.695V30.7266ZM207.352 42V11.3672H213.211V37.0547H226.148V42H207.352ZM233.742 42V11.3672H239.602V37.0547H252.539V42H233.742ZM271.57 31.1484V42H265.711V31.1953L255.75 11.3672H262.148L266.648 20.8359L268.711 25.4766L270.773 20.6953L275.484 11.3672H281.625L271.57 31.1484Z" fill="#040418"/>
</svg>
