<svg width="25" height="24" viewBox="0 0 25 24" fill="none" xmlns="http://www.w3.org/2000/svg">
<path d="M21.9966 7.203C21.8805 6.7804 21.6538 6.395 21.3389 6.08517C21.0239 5.77533 20.6319 5.55186 20.2016 5.437C18.6063 5.007 12.2242 5 12.2242 5C12.2242 5 5.84317 4.993 4.24688 5.404C3.81691 5.52415 3.42563 5.75078 3.11059 6.06213C2.79556 6.37349 2.56734 6.75912 2.44787 7.182C2.02715 8.748 2.02307 11.996 2.02307 11.996C2.02307 11.996 2.019 15.26 2.43666 16.81C2.67096 17.667 3.35858 18.344 4.23261 18.575C5.84418 19.005 12.209 19.012 12.209 19.012C12.209 19.012 18.5911 19.019 20.1863 18.609C20.6167 18.4943 21.0092 18.2714 21.3249 17.9622C21.6406 17.653 21.8686 17.2682 21.9864 16.846C22.4081 15.281 22.4112 12.034 22.4112 12.034C22.4112 12.034 22.4315 8.769 21.9966 7.203ZM10.1828 15.005L10.1879 9.005L15.4922 12.01L10.1828 15.005Z" fill="#040418"/>
</svg>
