<svg width="300" height="60" viewBox="0 0 300 60" fill="none" xmlns="http://www.w3.org/2000/svg">
<rect width="300" height="60" fill="white"/>
<path d="M41.5312 40.8047C40.1719 41.3516 38.8516 41.7578 37.5703 42.0234C36.3047 42.2891 34.9844 42.4219 33.6094 42.4219C31.4062 42.4219 29.4531 42.1016 27.75 41.4609C26.0625 40.8047 24.6328 39.8359 23.4609 38.5547C22.3047 37.2734 21.4219 35.6875 20.8125 33.7969C20.2188 31.8906 19.9219 29.6797 19.9219 27.1641C19.9219 24.5859 20.25 22.2969 20.9062 20.2969C21.5625 18.2812 22.5 16.5859 23.7188 15.2109C24.9375 13.8203 26.4141 12.7656 28.1484 12.0469C29.8984 11.3125 31.8594 10.9453 34.0312 10.9453C34.7344 10.9453 35.3906 10.9609 36 10.9922C36.625 11.0234 37.2344 11.0859 37.8281 11.1797C38.4219 11.2578 39.0234 11.3672 39.6328 11.5078C40.2422 11.6484 40.875 11.8281 41.5312 12.0469V17.7656C40.2031 17.1406 38.9375 16.6953 37.7344 16.4297C36.5312 16.1641 35.4375 16.0312 34.4531 16.0312C33 16.0312 31.7578 16.2969 30.7266 16.8281C29.6953 17.3438 28.8438 18.0781 28.1719 19.0312C27.5156 19.9688 27.0312 21.0938 26.7188 22.4062C26.4062 23.7031 26.25 25.1328 26.25 26.6953C26.25 28.3516 26.4062 29.8359 26.7188 31.1484C27.0469 32.4453 27.5469 33.5469 28.2188 34.4531C28.8906 35.3594 29.75 36.0547 30.7969 36.5391C31.8438 37.0078 33.0859 37.2422 34.5234 37.2422C35.0391 37.2422 35.5938 37.1953 36.1875 37.1016C36.7969 36.9922 37.4062 36.8594 38.0156 36.7031C38.6406 36.5312 39.25 36.3359 39.8438 36.1172C40.4531 35.8828 41.0156 35.6484 41.5312 35.4141V40.8047ZM69.0938 29.9062C69.0938 31.7812 68.8281 33.5 68.2969 35.0625C67.7656 36.6094 67 37.9375 66 39.0469C65 40.1562 63.7734 41.0156 62.3203 41.625C60.8672 42.2344 59.2109 42.5391 57.3516 42.5391C55.5859 42.5391 54.0078 42.2812 52.6172 41.7656C51.2266 41.25 50.0469 40.4844 49.0781 39.4688C48.1094 38.4375 47.3672 37.1562 46.8516 35.625C46.3359 34.0781 46.0781 32.2812 46.0781 30.2344C46.0781 28.3438 46.3438 26.625 46.875 25.0781C47.4219 23.5312 48.1953 22.2109 49.1953 21.1172C50.2109 20.0234 51.4453 19.1797 52.8984 18.5859C54.3516 17.9766 55.9922 17.6719 57.8203 17.6719C59.6016 17.6719 61.1875 17.9375 62.5781 18.4688C63.9688 18.9844 65.1484 19.7578 66.1172 20.7891C67.0859 21.8203 67.8203 23.1016 68.3203 24.6328C68.8359 26.1484 69.0938 27.9062 69.0938 29.9062ZM63.1406 30.0469C63.1406 27.5781 62.6719 25.7266 61.7344 24.4922C60.8125 23.2422 59.4453 22.6172 57.6328 22.6172C56.6328 22.6172 55.7812 22.8125 55.0781 23.2031C54.375 23.5938 53.7969 24.1328 53.3438 24.8203C52.8906 25.4922 52.5547 26.2812 52.3359 27.1875C52.1328 28.0938 52.0312 29.0625 52.0312 30.0938C52.0312 32.5781 52.5312 34.4531 53.5312 35.7188C54.5312 36.9688 55.8984 37.5938 57.6328 37.5938C58.5859 37.5938 59.4141 37.4062 60.1172 37.0312C60.8203 36.6406 61.3906 36.1094 61.8281 35.4375C62.2656 34.75 62.5938 33.9453 62.8125 33.0234C63.0312 32.1016 63.1406 31.1094 63.1406 30.0469ZM81.7266 13.3359H75V8.88281H87.5859V37.5469H94.4531V42H74.1797V37.5469H81.7266V13.3359ZM121.875 29.9062C121.875 31.7812 121.609 33.5 121.078 35.0625C120.547 36.6094 119.781 37.9375 118.781 39.0469C117.781 40.1562 116.555 41.0156 115.102 41.625C113.648 42.2344 111.992 42.5391 110.133 42.5391C108.367 42.5391 106.789 42.2812 105.398 41.7656C104.008 41.25 102.828 40.4844 101.859 39.4688C100.891 38.4375 100.148 37.1562 99.6328 35.625C99.1172 34.0781 98.8594 32.2812 98.8594 30.2344C98.8594 28.3438 99.125 26.625 99.6562 25.0781C100.203 23.5312 100.977 22.2109 101.977 21.1172C102.992 20.0234 104.227 19.1797 105.68 18.5859C107.133 17.9766 108.773 17.6719 110.602 17.6719C112.383 17.6719 113.969 17.9375 115.359 18.4688C116.75 18.9844 117.93 19.7578 118.898 20.7891C119.867 21.8203 120.602 23.1016 121.102 24.6328C121.617 26.1484 121.875 27.9062 121.875 29.9062ZM115.922 30.0469C115.922 27.5781 115.453 25.7266 114.516 24.4922C113.594 23.2422 112.227 22.6172 110.414 22.6172C109.414 22.6172 108.562 22.8125 107.859 23.2031C107.156 23.5938 106.578 24.1328 106.125 24.8203C105.672 25.4922 105.336 26.2812 105.117 27.1875C104.914 28.0938 104.812 29.0625 104.812 30.0938C104.812 32.5781 105.312 34.4531 106.312 35.7188C107.312 36.9688 108.68 37.5938 110.414 37.5938C111.367 37.5938 112.195 37.4062 112.898 37.0312C113.602 36.6406 114.172 36.1094 114.609 35.4375C115.047 34.75 115.375 33.9453 115.594 33.0234C115.812 32.1016 115.922 31.1094 115.922 30.0469ZM142.148 27.4453C142.18 26.5547 142.133 25.7969 142.008 25.1719C141.898 24.5469 141.711 24.0312 141.445 23.625C141.195 23.2188 140.883 22.9219 140.508 22.7344C140.133 22.5469 139.703 22.4531 139.219 22.4531C138.375 22.4531 137.5 22.8047 136.594 23.5078C135.703 24.1953 134.719 25.3359 133.641 26.9297V42H127.781V18.1875H132.961L133.172 21.6562C133.562 21.0469 134 20.5 134.484 20.0156C134.984 19.5312 135.531 19.1172 136.125 18.7734C136.734 18.4141 137.406 18.1406 138.141 17.9531C138.875 17.7656 139.68 17.6719 140.555 17.6719C141.758 17.6719 142.82 17.8828 143.742 18.3047C144.68 18.7109 145.461 19.3203 146.086 20.1328C146.727 20.9453 147.195 21.9688 147.492 23.2031C147.805 24.4219 147.938 25.8359 147.891 27.4453H142.148ZM174.586 13.7344C173.898 13.5156 173.078 13.3359 172.125 13.1953C171.188 13.0391 170.227 12.9609 169.242 12.9609C168.57 12.9609 167.945 13.0547 167.367 13.2422C166.789 13.4141 166.289 13.6953 165.867 14.0859C165.445 14.4766 165.109 14.9766 164.859 15.5859C164.625 16.1797 164.508 16.9062 164.508 17.7656V21.6094H173.859V26.0625H164.508V42H158.742V26.0625H151.828V21.6094H158.742V18C158.742 16.3125 158.984 14.8672 159.469 13.6641C159.969 12.4453 160.664 11.4531 161.555 10.6875C162.461 9.90625 163.547 9.33594 164.812 8.97656C166.078 8.61719 167.492 8.4375 169.055 8.4375C170.086 8.4375 171.062 8.50781 171.984 8.64844C172.922 8.77344 173.789 8.92969 174.586 9.11719V13.7344ZM185.273 18.1875V33.7031C185.273 35 185.516 35.9844 186 36.6562C186.484 37.3125 187.219 37.6406 188.203 37.6406C189.156 37.6406 190.07 37.25 190.945 36.4688C191.836 35.6719 192.773 34.6016 193.758 33.2578V18.1875H199.477V42H194.531L194.391 38.4844C193.891 39.0938 193.383 39.6484 192.867 40.1484C192.352 40.6484 191.789 41.0781 191.18 41.4375C190.586 41.7812 189.93 42.0469 189.211 42.2344C188.508 42.4375 187.727 42.5391 186.867 42.5391C185.648 42.5391 184.578 42.3438 183.656 41.9531C182.75 41.5469 181.992 40.9766 181.383 40.2422C180.773 39.5078 180.312 38.6328 180 37.6172C179.703 36.5859 179.555 35.4375 179.555 34.1719V18.1875H185.273ZM213.68 13.3359H206.953V8.88281H219.539V37.5469H226.406V42H206.133V37.5469H213.68V13.3359ZM240.07 13.3359H233.344V8.88281H245.93V37.5469H252.797V42H232.523V37.5469H240.07V13.3359ZM273.094 39.3984C272.266 41.4609 271.398 43.2656 270.492 44.8125C269.602 46.375 268.617 47.6719 267.539 48.7031C266.461 49.75 265.258 50.5312 263.93 51.0469C262.617 51.5781 261.141 51.8438 259.5 51.8438C259.109 51.8438 258.68 51.8203 258.211 51.7734C257.758 51.7422 257.289 51.6875 256.805 51.6094V46.7578C256.992 46.7891 257.203 46.8203 257.438 46.8516C257.688 46.8984 257.945 46.9297 258.211 46.9453C258.477 46.9766 258.742 47 259.008 47.0156C259.289 47.0312 259.547 47.0391 259.781 47.0391C260.438 47.0391 261.047 46.9141 261.609 46.6641C262.172 46.4141 262.688 46.0625 263.156 45.6094C263.641 45.1719 264.078 44.6406 264.469 44.0156C264.859 43.4062 265.203 42.7344 265.5 42L256.055 18.1875H262.43L267.375 31.6875L268.852 36.0469L270.305 31.875L275.297 18.1875H281.438L273.094 39.3984Z" fill="#040418"/>
</svg>
