<svg width="25" height="24" viewBox="0 0 25 24" fill="none" xmlns="http://www.w3.org/2000/svg">
<path fill-rule="evenodd" clip-rule="evenodd" d="M12.2508 2C6.63879 2 2.09033 6.465 2.09033 11.974C2.09033 16.38 5.00073 20.119 9.03883 21.439C9.54715 21.529 9.73052 21.222 9.73052 20.958C9.73052 20.721 9.72237 20.093 9.71931 19.262C6.89244 19.864 6.29549 17.924 6.29549 17.924C5.83504 16.772 5.1678 16.465 5.1678 16.465C4.24588 15.846 5.23809 15.86 5.23809 15.86C6.25882 15.93 6.79363 16.888 6.79363 16.888C7.70027 18.412 9.17329 17.972 9.74987 17.717C9.84257 17.072 10.1074 16.632 10.3967 16.383C8.14136 16.132 5.76985 15.276 5.76985 11.453C5.76985 10.366 6.16612 9.474 6.81299 8.778C6.7101 8.525 6.35865 7.51 6.91384 6.138C6.91384 6.138 7.76648 5.869 9.70709 7.159C10.5359 6.93767 11.3908 6.8247 12.2497 6.823C13.1087 6.82437 13.9637 6.93735 14.7924 7.159C16.734 5.868 17.5856 6.138 17.5856 6.138C18.1408 7.51 17.7924 8.525 17.6865 8.778C18.3385 9.474 18.7296 10.365 18.7296 11.453C18.7296 15.286 16.3561 16.128 14.0926 16.375C14.4542 16.683 14.7802 17.291 14.7802 18.221C14.7802 19.555 14.7679 20.631 14.7679 20.958C14.7679 21.225 14.9493 21.535 15.4678 21.437C19.5038 20.115 22.4112 16.379 22.4112 11.974C22.4112 6.465 17.8627 2 12.2508 2Z" fill="#040418"/>
</svg>
